<mxfile host="Electron" modified="2023-05-03T06:58:39.599Z" agent="Mozilla/5.0 (Windows NT 10.0; Win64; x64) AppleWebKit/537.36 (KHTML, like Gecko) draw.io/21.2.1 Chrome/112.0.5615.87 Electron/24.1.2 Safari/537.36" etag="7ONZ3DG_4l4pFyPlQqZk" version="21.2.1" type="device">
  <diagram name="第 1 页" id="6_HxzT0Q5W8QO_RAKAHN">
    <mxGraphModel dx="898" dy="579" grid="1" gridSize="10" guides="1" tooltips="1" connect="1" arrows="1" fold="1" page="1" pageScale="1" pageWidth="827" pageHeight="1169" math="0" shadow="0">
      <root>
        <mxCell id="0" />
        <mxCell id="1" parent="0" />
        <mxCell id="JPOE9ohCDTVTaBF0mj38-1" value="" style="endArrow=classic;html=1;rounded=0;strokeWidth=3;" parent="1" edge="1">
          <mxGeometry width="50" height="50" relative="1" as="geometry">
            <mxPoint x="120" y="200" as="sourcePoint" />
            <mxPoint x="680" y="200" as="targetPoint" />
          </mxGeometry>
        </mxCell>
        <mxCell id="JPOE9ohCDTVTaBF0mj38-2" value="&lt;font color=&quot;#ffffff&quot; style=&quot;font-size: 16px;&quot;&gt;&lt;b&gt;Version 1&lt;/b&gt;&lt;/font&gt;" style="rounded=1;whiteSpace=wrap;html=1;strokeColor=none;fillColor=#da9a00;arcSize=50;" parent="1" vertex="1">
          <mxGeometry x="120" y="210" width="90" height="40" as="geometry" />
        </mxCell>
        <mxCell id="JPOE9ohCDTVTaBF0mj38-3" value="&lt;font color=&quot;#ffffff&quot; style=&quot;font-size: 16px;&quot;&gt;&lt;b&gt;Version 2&lt;/b&gt;&lt;/font&gt;" style="rounded=1;whiteSpace=wrap;html=1;strokeColor=none;fillColor=#da9a00;arcSize=50;" parent="1" vertex="1">
          <mxGeometry x="238" y="210" width="90" height="40" as="geometry" />
        </mxCell>
        <mxCell id="JPOE9ohCDTVTaBF0mj38-4" value="&lt;font color=&quot;#ffffff&quot; style=&quot;font-size: 16px;&quot;&gt;&lt;b&gt;Version 3&lt;/b&gt;&lt;/font&gt;" style="rounded=1;whiteSpace=wrap;html=1;strokeColor=none;fillColor=#da9a00;arcSize=50;" parent="1" vertex="1">
          <mxGeometry x="355" y="210" width="90" height="40" as="geometry" />
        </mxCell>
        <mxCell id="JPOE9ohCDTVTaBF0mj38-5" value="&lt;font color=&quot;#ffffff&quot; style=&quot;font-size: 16px;&quot;&gt;&lt;b&gt;Version 4&lt;/b&gt;&lt;/font&gt;" style="rounded=1;whiteSpace=wrap;html=1;strokeColor=none;fillColor=#da9a00;arcSize=50;" parent="1" vertex="1">
          <mxGeometry x="473" y="210" width="90" height="40" as="geometry" />
        </mxCell>
        <mxCell id="JPOE9ohCDTVTaBF0mj38-6" value="&lt;font color=&quot;#ffffff&quot; style=&quot;font-size: 16px;&quot;&gt;&lt;b&gt;Version 5&lt;/b&gt;&lt;/font&gt;" style="rounded=1;whiteSpace=wrap;html=1;strokeColor=none;fillColor=#da9a00;arcSize=50;" parent="1" vertex="1">
          <mxGeometry x="590" y="210" width="90" height="40" as="geometry" />
        </mxCell>
        <mxCell id="JPOE9ohCDTVTaBF0mj38-7" value="&lt;b&gt;&lt;font style=&quot;font-size: 18px;&quot;&gt;Checkins Over Time&lt;/font&gt;&lt;/b&gt;" style="text;html=1;strokeColor=none;fillColor=none;align=center;verticalAlign=middle;whiteSpace=wrap;rounded=0;" parent="1" vertex="1">
          <mxGeometry x="305" y="170" width="190" height="30" as="geometry" />
        </mxCell>
        <mxCell id="JPOE9ohCDTVTaBF0mj38-8" value="&lt;font style=&quot;font-size: 16px;&quot;&gt;&lt;b style=&quot;&quot;&gt;File A&lt;/b&gt;&lt;/font&gt;" style="rounded=1;whiteSpace=wrap;html=1;strokeColor=none;fillColor=#efeee7;arcSize=50;" parent="1" vertex="1">
          <mxGeometry x="120" y="280" width="90" height="40" as="geometry" />
        </mxCell>
        <mxCell id="JPOE9ohCDTVTaBF0mj38-15" value="&lt;font style=&quot;font-size: 16px;&quot;&gt;&lt;b style=&quot;&quot;&gt;File B&lt;/b&gt;&lt;/font&gt;" style="rounded=1;whiteSpace=wrap;html=1;strokeColor=none;fillColor=#efeee7;arcSize=50;" parent="1" vertex="1">
          <mxGeometry x="120" y="360" width="90" height="40" as="geometry" />
        </mxCell>
        <mxCell id="JPOE9ohCDTVTaBF0mj38-20" value="&lt;font style=&quot;font-size: 16px;&quot;&gt;&lt;b style=&quot;&quot;&gt;File C&lt;/b&gt;&lt;/font&gt;" style="rounded=1;whiteSpace=wrap;html=1;strokeColor=none;fillColor=#efeee7;arcSize=50;" parent="1" vertex="1">
          <mxGeometry x="120" y="440" width="90" height="40" as="geometry" />
        </mxCell>
        <mxCell id="3qvHbx8W9iNA7JWjKCB--1" value="" style="endArrow=none;html=1;rounded=0;entryX=0.5;entryY=1;entryDx=0;entryDy=0;strokeWidth=2;" edge="1" parent="1" source="JPOE9ohCDTVTaBF0mj38-8" target="JPOE9ohCDTVTaBF0mj38-2">
          <mxGeometry width="50" height="50" relative="1" as="geometry">
            <mxPoint x="390" y="430" as="sourcePoint" />
            <mxPoint x="440" y="380" as="targetPoint" />
          </mxGeometry>
        </mxCell>
        <mxCell id="3qvHbx8W9iNA7JWjKCB--5" value="" style="endArrow=none;html=1;rounded=0;entryX=0.5;entryY=1;entryDx=0;entryDy=0;strokeWidth=2;exitX=0.5;exitY=0;exitDx=0;exitDy=0;" edge="1" parent="1" source="JPOE9ohCDTVTaBF0mj38-15" target="JPOE9ohCDTVTaBF0mj38-8">
          <mxGeometry width="50" height="50" relative="1" as="geometry">
            <mxPoint x="185" y="300" as="sourcePoint" />
            <mxPoint x="185" y="270" as="targetPoint" />
          </mxGeometry>
        </mxCell>
        <mxCell id="3qvHbx8W9iNA7JWjKCB--6" value="" style="endArrow=none;html=1;rounded=0;entryX=0.5;entryY=1;entryDx=0;entryDy=0;strokeWidth=2;" edge="1" parent="1" source="JPOE9ohCDTVTaBF0mj38-20" target="JPOE9ohCDTVTaBF0mj38-15">
          <mxGeometry width="50" height="50" relative="1" as="geometry">
            <mxPoint x="195" y="310" as="sourcePoint" />
            <mxPoint x="195" y="280" as="targetPoint" />
          </mxGeometry>
        </mxCell>
        <mxCell id="3qvHbx8W9iNA7JWjKCB--7" value="&lt;font style=&quot;font-size: 16px;&quot;&gt;&lt;b style=&quot;&quot;&gt;A1&lt;/b&gt;&lt;/font&gt;" style="rounded=1;whiteSpace=wrap;html=1;strokeColor=none;fillColor=#efeee7;arcSize=50;" vertex="1" parent="1">
          <mxGeometry x="238" y="280" width="90" height="40" as="geometry" />
        </mxCell>
        <mxCell id="3qvHbx8W9iNA7JWjKCB--8" value="&lt;font style=&quot;font-size: 16px;&quot;&gt;&lt;b style=&quot;&quot;&gt;B&lt;/b&gt;&lt;/font&gt;" style="rounded=1;whiteSpace=wrap;html=1;strokeColor=default;fillColor=#efeee7;arcSize=50;dashed=1;" vertex="1" parent="1">
          <mxGeometry x="238" y="360" width="90" height="40" as="geometry" />
        </mxCell>
        <mxCell id="3qvHbx8W9iNA7JWjKCB--9" value="&lt;font style=&quot;font-size: 16px;&quot;&gt;&lt;b style=&quot;&quot;&gt;C1&lt;/b&gt;&lt;/font&gt;" style="rounded=1;whiteSpace=wrap;html=1;strokeColor=none;fillColor=#efeee7;arcSize=50;" vertex="1" parent="1">
          <mxGeometry x="238" y="440" width="90" height="40" as="geometry" />
        </mxCell>
        <mxCell id="3qvHbx8W9iNA7JWjKCB--10" value="" style="endArrow=none;html=1;rounded=0;entryX=0.5;entryY=1;entryDx=0;entryDy=0;strokeWidth=2;" edge="1" parent="1" source="3qvHbx8W9iNA7JWjKCB--7">
          <mxGeometry width="50" height="50" relative="1" as="geometry">
            <mxPoint x="508" y="430" as="sourcePoint" />
            <mxPoint x="283" y="250" as="targetPoint" />
          </mxGeometry>
        </mxCell>
        <mxCell id="3qvHbx8W9iNA7JWjKCB--11" value="" style="endArrow=none;html=1;rounded=0;entryX=0.5;entryY=1;entryDx=0;entryDy=0;strokeWidth=2;exitX=0.5;exitY=0;exitDx=0;exitDy=0;" edge="1" parent="1" source="3qvHbx8W9iNA7JWjKCB--8" target="3qvHbx8W9iNA7JWjKCB--7">
          <mxGeometry width="50" height="50" relative="1" as="geometry">
            <mxPoint x="303" y="300" as="sourcePoint" />
            <mxPoint x="303" y="270" as="targetPoint" />
          </mxGeometry>
        </mxCell>
        <mxCell id="3qvHbx8W9iNA7JWjKCB--12" value="" style="endArrow=none;html=1;rounded=0;entryX=0.5;entryY=1;entryDx=0;entryDy=0;strokeWidth=2;" edge="1" parent="1" source="3qvHbx8W9iNA7JWjKCB--9" target="3qvHbx8W9iNA7JWjKCB--8">
          <mxGeometry width="50" height="50" relative="1" as="geometry">
            <mxPoint x="313" y="310" as="sourcePoint" />
            <mxPoint x="313" y="280" as="targetPoint" />
          </mxGeometry>
        </mxCell>
        <mxCell id="3qvHbx8W9iNA7JWjKCB--13" value="&lt;font style=&quot;font-size: 16px;&quot;&gt;&lt;b style=&quot;&quot;&gt;A1&lt;/b&gt;&lt;/font&gt;" style="rounded=1;whiteSpace=wrap;html=1;strokeColor=default;fillColor=#efeee7;arcSize=50;dashed=1;" vertex="1" parent="1">
          <mxGeometry x="355" y="280" width="90" height="40" as="geometry" />
        </mxCell>
        <mxCell id="3qvHbx8W9iNA7JWjKCB--14" value="&lt;font style=&quot;font-size: 16px;&quot;&gt;&lt;b style=&quot;&quot;&gt;B&lt;/b&gt;&lt;/font&gt;" style="rounded=1;whiteSpace=wrap;html=1;strokeColor=default;fillColor=#efeee7;arcSize=50;dashed=1;" vertex="1" parent="1">
          <mxGeometry x="355" y="360" width="90" height="40" as="geometry" />
        </mxCell>
        <mxCell id="3qvHbx8W9iNA7JWjKCB--15" value="&lt;font style=&quot;font-size: 16px;&quot;&gt;&lt;b style=&quot;&quot;&gt;C2&lt;/b&gt;&lt;/font&gt;" style="rounded=1;whiteSpace=wrap;html=1;strokeColor=none;fillColor=#efeee7;arcSize=50;" vertex="1" parent="1">
          <mxGeometry x="355" y="440" width="90" height="40" as="geometry" />
        </mxCell>
        <mxCell id="3qvHbx8W9iNA7JWjKCB--16" value="" style="endArrow=none;html=1;rounded=0;entryX=0.5;entryY=1;entryDx=0;entryDy=0;strokeWidth=2;" edge="1" parent="1" source="3qvHbx8W9iNA7JWjKCB--13">
          <mxGeometry width="50" height="50" relative="1" as="geometry">
            <mxPoint x="625" y="430" as="sourcePoint" />
            <mxPoint x="400" y="250" as="targetPoint" />
          </mxGeometry>
        </mxCell>
        <mxCell id="3qvHbx8W9iNA7JWjKCB--17" value="" style="endArrow=none;html=1;rounded=0;entryX=0.5;entryY=1;entryDx=0;entryDy=0;strokeWidth=2;exitX=0.5;exitY=0;exitDx=0;exitDy=0;" edge="1" parent="1" source="3qvHbx8W9iNA7JWjKCB--14" target="3qvHbx8W9iNA7JWjKCB--13">
          <mxGeometry width="50" height="50" relative="1" as="geometry">
            <mxPoint x="420" y="300" as="sourcePoint" />
            <mxPoint x="420" y="270" as="targetPoint" />
          </mxGeometry>
        </mxCell>
        <mxCell id="3qvHbx8W9iNA7JWjKCB--18" value="" style="endArrow=none;html=1;rounded=0;entryX=0.5;entryY=1;entryDx=0;entryDy=0;strokeWidth=2;" edge="1" parent="1" source="3qvHbx8W9iNA7JWjKCB--15" target="3qvHbx8W9iNA7JWjKCB--14">
          <mxGeometry width="50" height="50" relative="1" as="geometry">
            <mxPoint x="430" y="310" as="sourcePoint" />
            <mxPoint x="430" y="280" as="targetPoint" />
          </mxGeometry>
        </mxCell>
        <mxCell id="3qvHbx8W9iNA7JWjKCB--19" value="&lt;span style=&quot;font-size: 16px;&quot;&gt;&lt;b&gt;A2&lt;/b&gt;&lt;/span&gt;" style="rounded=1;whiteSpace=wrap;html=1;strokeColor=none;fillColor=#efeee7;arcSize=50;" vertex="1" parent="1">
          <mxGeometry x="473" y="280" width="90" height="40" as="geometry" />
        </mxCell>
        <mxCell id="3qvHbx8W9iNA7JWjKCB--20" value="&lt;font style=&quot;font-size: 16px;&quot;&gt;&lt;b style=&quot;&quot;&gt;B1&lt;/b&gt;&lt;/font&gt;" style="rounded=1;whiteSpace=wrap;html=1;strokeColor=none;fillColor=#efeee7;arcSize=50;" vertex="1" parent="1">
          <mxGeometry x="473" y="360" width="90" height="40" as="geometry" />
        </mxCell>
        <mxCell id="3qvHbx8W9iNA7JWjKCB--21" value="&lt;font style=&quot;font-size: 16px;&quot;&gt;&lt;b style=&quot;&quot;&gt;C2&lt;/b&gt;&lt;/font&gt;" style="rounded=1;whiteSpace=wrap;html=1;strokeColor=default;fillColor=#efeee7;arcSize=50;dashed=1;" vertex="1" parent="1">
          <mxGeometry x="473" y="440" width="90" height="40" as="geometry" />
        </mxCell>
        <mxCell id="3qvHbx8W9iNA7JWjKCB--22" value="" style="endArrow=none;html=1;rounded=0;entryX=0.5;entryY=1;entryDx=0;entryDy=0;strokeWidth=2;" edge="1" parent="1" source="3qvHbx8W9iNA7JWjKCB--19">
          <mxGeometry width="50" height="50" relative="1" as="geometry">
            <mxPoint x="743" y="430" as="sourcePoint" />
            <mxPoint x="518" y="250" as="targetPoint" />
          </mxGeometry>
        </mxCell>
        <mxCell id="3qvHbx8W9iNA7JWjKCB--23" value="" style="endArrow=none;html=1;rounded=0;entryX=0.5;entryY=1;entryDx=0;entryDy=0;strokeWidth=2;exitX=0.5;exitY=0;exitDx=0;exitDy=0;" edge="1" parent="1" source="3qvHbx8W9iNA7JWjKCB--20" target="3qvHbx8W9iNA7JWjKCB--19">
          <mxGeometry width="50" height="50" relative="1" as="geometry">
            <mxPoint x="538" y="300" as="sourcePoint" />
            <mxPoint x="538" y="270" as="targetPoint" />
          </mxGeometry>
        </mxCell>
        <mxCell id="3qvHbx8W9iNA7JWjKCB--24" value="" style="endArrow=none;html=1;rounded=0;entryX=0.5;entryY=1;entryDx=0;entryDy=0;strokeWidth=2;" edge="1" parent="1" source="3qvHbx8W9iNA7JWjKCB--21" target="3qvHbx8W9iNA7JWjKCB--20">
          <mxGeometry width="50" height="50" relative="1" as="geometry">
            <mxPoint x="548" y="310" as="sourcePoint" />
            <mxPoint x="548" y="280" as="targetPoint" />
          </mxGeometry>
        </mxCell>
        <mxCell id="3qvHbx8W9iNA7JWjKCB--25" value="&lt;font style=&quot;font-size: 16px;&quot;&gt;&lt;b style=&quot;&quot;&gt;A2&lt;/b&gt;&lt;/font&gt;" style="rounded=1;whiteSpace=wrap;html=1;strokeColor=default;fillColor=#efeee7;arcSize=50;dashed=1;" vertex="1" parent="1">
          <mxGeometry x="590" y="280" width="90" height="40" as="geometry" />
        </mxCell>
        <mxCell id="3qvHbx8W9iNA7JWjKCB--26" value="&lt;font style=&quot;font-size: 16px;&quot;&gt;&lt;b style=&quot;&quot;&gt;B2&lt;/b&gt;&lt;/font&gt;" style="rounded=1;whiteSpace=wrap;html=1;strokeColor=none;fillColor=#efeee7;arcSize=50;" vertex="1" parent="1">
          <mxGeometry x="590" y="360" width="90" height="40" as="geometry" />
        </mxCell>
        <mxCell id="3qvHbx8W9iNA7JWjKCB--27" value="&lt;font style=&quot;font-size: 16px;&quot;&gt;&lt;b style=&quot;&quot;&gt;C3&lt;/b&gt;&lt;/font&gt;" style="rounded=1;whiteSpace=wrap;html=1;strokeColor=none;fillColor=#efeee7;arcSize=50;" vertex="1" parent="1">
          <mxGeometry x="590" y="440" width="90" height="40" as="geometry" />
        </mxCell>
        <mxCell id="3qvHbx8W9iNA7JWjKCB--28" value="" style="endArrow=none;html=1;rounded=0;entryX=0.5;entryY=1;entryDx=0;entryDy=0;strokeWidth=2;" edge="1" parent="1" source="3qvHbx8W9iNA7JWjKCB--25">
          <mxGeometry width="50" height="50" relative="1" as="geometry">
            <mxPoint x="860" y="430" as="sourcePoint" />
            <mxPoint x="635" y="250" as="targetPoint" />
          </mxGeometry>
        </mxCell>
        <mxCell id="3qvHbx8W9iNA7JWjKCB--29" value="" style="endArrow=none;html=1;rounded=0;entryX=0.5;entryY=1;entryDx=0;entryDy=0;strokeWidth=2;exitX=0.5;exitY=0;exitDx=0;exitDy=0;" edge="1" parent="1" source="3qvHbx8W9iNA7JWjKCB--26" target="3qvHbx8W9iNA7JWjKCB--25">
          <mxGeometry width="50" height="50" relative="1" as="geometry">
            <mxPoint x="655" y="300" as="sourcePoint" />
            <mxPoint x="655" y="270" as="targetPoint" />
          </mxGeometry>
        </mxCell>
        <mxCell id="3qvHbx8W9iNA7JWjKCB--30" value="" style="endArrow=none;html=1;rounded=0;entryX=0.5;entryY=1;entryDx=0;entryDy=0;strokeWidth=2;" edge="1" parent="1" source="3qvHbx8W9iNA7JWjKCB--27" target="3qvHbx8W9iNA7JWjKCB--26">
          <mxGeometry width="50" height="50" relative="1" as="geometry">
            <mxPoint x="665" y="310" as="sourcePoint" />
            <mxPoint x="665" y="280" as="targetPoint" />
          </mxGeometry>
        </mxCell>
      </root>
    </mxGraphModel>
  </diagram>
</mxfile>
